<svg xmlns="http://www.w3.org/2000/svg" viewBox="0 0 565 578" version="1.1" width="565" height="578">
	<defs>
		<linearGradient id="brand-gradient" x1="0%" y1="0%" x2="100%" y2="100%">
			<stop offset="0%" stop-color="#00685f"/>
			<stop offset="100%" stop-color="#006780"/>
		</linearGradient>
	</defs>
	<path d="M 205.500 6.167 C 197.489 9.184, 190.344 16.684, 188.510 24 C 187.966 26.175, 186.362 26.999, 176.192 30.333 C 145.948 40.249, 122.129 54.795, 99.877 76.938 C 66.678 109.975, 48.492 148.933, 42.904 198.990 C 41.416 212.320, 42.288 248.931, 44.412 262.311 C 49.162 292.233, 57.411 318.406, 70.946 346.500 C 98.013 402.682, 137.069 446.118, 185.476 473.874 C 198.139 481.135, 205.432 480.866, 209.506 472.989 C 213.506 465.253, 210.488 460.822, 195.282 452.111 C 132.469 416.126, 83.223 342.931, 68.904 264.274 C 66.234 249.611, 65.154 214.307, 66.916 199.323 C 75.314 127.902, 117.613 74.252, 182.273 53.010 C 191.476 49.987, 192.175 49.895, 194.273 51.433 C 195.498 52.331, 198.030 54.177, 199.901 55.535 C 212.811 64.907, 232.264 58.724, 239.342 43 C 241.868 37.388, 241.998 27.153, 239.613 21.728 C 237.345 16.569, 231.470 10.282, 226.568 7.769 C 221.795 5.322, 210.103 4.433, 205.500 6.167 M 283.378 14.437 C 276.145 17.585, 274.575 26.775, 280.293 32.493 C 283.388 35.588, 284.124 35.824, 292.543 36.419 C 327.851 38.916, 355.563 46.200, 384.837 60.681 C 461.319 98.512, 512.752 171.940, 521.999 256.500 C 523.277 268.178, 523.262 297.014, 521.974 308.500 C 515.467 366.501, 491.132 418.051, 450.516 459.872 C 406.704 504.984, 351.703 530.681, 290.580 534.596 L 279.661 535.296 274.792 539.898 C 268.996 545.377, 260.225 551.299, 254.294 553.738 C 251.936 554.707, 250.006 555.802, 250.004 556.170 C 249.988 559.074, 301.281 558.289, 319.255 555.111 C 413.842 538.387, 493.343 472.170, 528.297 381 C 540.743 348.536, 546.363 318.069, 546.375 283 C 546.391 237.573, 536.875 198.457, 516.046 158.318 C 473.479 76.292, 393.312 22.255, 302 14.041 C 287.735 12.758, 287.210 12.769, 283.378 14.437 M 314.922 74.274 C 310.387 77.330, 307 82.580, 307 86.552 C 307 89.450, 306.404 90.145, 301.590 92.862 C 295.296 96.415, 287.330 104.065, 284.584 109.194 C 282.940 112.263, 282.030 112.861, 278.204 113.386 C 268.374 114.733, 262.416 121.938, 263.210 131.516 C 263.937 140.290, 269.505 145.768, 278.896 146.948 C 281.313 147.251, 283.670 148.175, 284.133 149 C 284.596 149.825, 292.221 165.159, 301.076 183.075 L 317.177 215.650 314.589 219.465 C 305.054 233.514, 321.279 251.030, 336.347 242.954 L 340.164 240.908 365 257.199 L 389.835 273.491 389.773 278.495 C 389.739 281.248, 389.888 283.977, 390.105 284.561 C 390.322 285.145, 379.591 293.820, 366.257 303.839 C 343.090 321.246, 341.914 321.991, 339.757 320.602 C 326.492 312.058, 308.792 329.306, 317.004 342.774 C 318.893 345.873, 319 347.828, 318.998 379.274 C 318.996 427.157, 322.454 423.500, 277.177 423.500 C 244.977 423.500, 244.454 423.467, 241.373 421.270 C 234.986 416.714, 235 416.829, 235 368.138 L 235 324.078 190.072 323.789 C 130.156 323.404, 135.500 327.478, 135.500 282.177 C 135.500 252.137, 135.605 250.319, 137.534 247 C 141.626 239.959, 141.287 240.003, 190.750 240.002 L 235 240 235 195.950 C 235 148.118, 234.954 148.541, 240.615 144.088 C 242.236 142.813, 244.731 142, 247.024 142 L 250.779 142 250.255 133.605 C 249.939 128.538, 250.179 123.925, 250.861 121.968 L 251.991 118.727 245.442 119.253 C 232.215 120.314, 219.790 129.457, 214.804 141.798 C 212.576 147.312, 212.491 148.647, 212.202 182.250 L 211.904 217 178.702 217.012 C 143.858 217.024, 139.946 217.417, 131.500 221.745 C 125.614 224.761, 119.316 231.626, 115.693 238.975 L 112.500 245.451 112.189 278.713 C 111.928 306.628, 112.134 312.975, 113.474 318.204 C 116.452 329.828, 125.105 339.882, 135.853 344.204 C 141.289 346.391, 142.813 346.488, 176.703 346.796 L 211.906 347.116 212.203 382.808 L 212.500 418.500 215.298 424.500 C 219.001 432.438, 226.682 440.129, 234.395 443.621 C 239.735 446.039, 242.044 446.439, 252.821 446.816 L 265.142 447.246 264.821 467.873 L 264.500 488.500 260.864 496.115 C 249.707 519.477, 222.566 529.632, 195.500 520.572 C 191.100 519.099, 181.177 514.814, 173.448 511.050 C 106.869 478.619, 55.674 414.599, 37.957 341.619 C 33.288 322.385, 31.917 311.212, 30.949 284.500 C 30.451 270.750, 29.600 256.800, 29.059 253.500 C 25.897 234.239, 26.917 203.008, 31.433 180.818 C 32.700 174.593, 33.574 169.316, 33.376 169.091 C 32.016 167.548, 20.040 198.832, 16.016 214.437 C -3.372 289.631, 10.243 369.278, 53.792 435.427 C 83.373 480.359, 133.671 522.178, 179 539.527 C 198.099 546.836, 217.320 548.924, 233.303 545.424 C 256.466 540.352, 276.598 522.660, 285.250 499.773 C 288.347 491.583, 288.382 491.276, 288.784 469.350 L 289.190 447.200 301.345 446.831 C 311.922 446.509, 314.237 446.118, 319.175 443.820 C 328.747 439.366, 336.918 430.451, 340.245 420.834 C 340.971 418.733, 341.602 405.567, 341.949 385.220 L 342.500 352.941 360.373 372.540 C 370.203 383.319, 378.280 392.670, 378.323 393.319 C 378.366 393.969, 377.807 396.637, 377.082 399.250 L 375.763 404 368.625 404 C 364.699 404, 360.055 403.589, 358.304 403.087 L 355.122 402.175 354.440 407.633 C 354.065 410.635, 354.075 413.408, 354.463 413.796 C 354.850 414.183, 360.960 414.525, 368.039 414.555 C 378.236 414.599, 381.285 414.936, 382.706 416.177 C 385.920 418.983, 388.787 420, 393.484 420 C 401.345 420, 407.311 415.433, 410 407.357 C 411.362 403.267, 412.009 402.648, 417.024 400.630 C 429.671 395.541, 440.129 385.743, 446.119 373.369 C 449.336 366.726, 450.554 365.133, 452.778 364.658 C 460.984 362.908, 466.403 355.393, 465.834 346.550 C 465.514 341.565, 465.697 341.132, 470.281 336.033 C 486.211 318.313, 490.345 292.944, 480.885 270.955 L 478.786 266.074 480.893 261.721 C 484.155 254.982, 483.098 247.081, 478.212 241.682 C 476.802 240.124, 476.556 238.177, 476.818 230.645 C 477.198 219.719, 474.967 211.334, 469.550 203.327 C 466.384 198.648, 466.155 197.854, 467.146 195.011 C 470.256 186.089, 465.732 176.532, 456.825 173.209 C 451.765 171.322, 451.604 171.137, 450.005 165.388 C 446.539 152.928, 439.417 141.766, 430.252 134.427 C 424.937 130.171, 413.677 123.933, 409.192 122.761 C 407.783 122.392, 407.157 121.086, 406.778 117.723 C 405.526 106.616, 393.977 100.058, 383.429 104.465 L 379.923 105.930 373.712 100.900 C 366.387 94.970, 355.997 89.731, 346.747 87.305 C 341.500 85.929, 339.991 85.101, 339.554 83.359 C 338.794 80.331, 334.350 75.233, 330.931 73.464 C 326.550 71.199, 318.911 71.585, 314.922 74.274 M 334.916 100.388 C 332.945 102.222, 330.740 103.920, 330.016 104.161 C 327.856 104.881, 330.667 139.999, 332.885 140.004 C 333.773 140.006, 335.963 140.900, 337.752 141.990 L 341.004 143.973 346.252 140.622 C 349.138 138.778, 356.463 134.327, 362.528 130.730 L 373.557 124.189 373.775 119.177 C 373.990 114.241, 373.913 114.101, 368.747 109.979 C 362.799 105.234, 356.042 101.595, 348.116 98.868 C 340.733 96.328, 339.075 96.519, 334.916 100.388 M 303.524 103.779 C 300.787 105.852, 296.878 109.757, 294.837 112.458 L 291.126 117.368 293.244 120.342 C 294.513 122.125, 295.535 125.404, 295.794 128.526 L 296.226 133.735 303.863 137.813 C 308.063 140.057, 312.377 142.538, 313.449 143.328 C 315.193 144.613, 315.808 144.494, 319.284 142.193 C 322.960 139.760, 323.141 139.402, 322.629 135.561 C 322.331 133.327, 321.829 127.450, 321.512 122.500 C 320.517 106.970, 320.139 105.177, 317.696 104.419 C 316.488 104.044, 314.306 102.897, 312.846 101.869 C 309.343 99.403, 309.287 99.414, 303.524 103.779 M 361.821 140.954 C 353.198 146.204, 345.831 150.817, 345.451 151.203 C 345.071 151.590, 345.046 153.432, 345.396 155.296 C 346.003 158.532, 346.577 158.922, 358.053 163.900 L 370.075 169.115 373.177 166.505 C 374.883 165.069, 377.536 163.643, 379.072 163.336 C 381.706 162.809, 381.901 162.401, 382.511 156.139 C 382.866 152.487, 383.489 146.468, 383.896 142.762 L 384.636 136.025 381.068 133.717 L 377.500 131.409 361.821 140.954 M 399.139 134.033 C 397.841 135.115, 395.968 136, 394.977 136 C 392.893 136, 392.416 138.314, 391.411 153.299 L 390.755 163.098 394.805 166.565 C 397.033 168.472, 399.368 171.585, 399.994 173.483 C 401.277 177.368, 399.533 176.831, 421.382 180.075 C 429.017 181.208, 435.546 181.768, 435.890 181.318 C 436.234 180.868, 437.751 179.124, 439.261 177.442 L 442.006 174.384 440.391 168.942 C 435.923 153.892, 426.110 142.014, 412.895 135.658 C 404.236 131.493, 402.443 131.281, 399.139 134.033 M 291 142.841 C 291 143.304, 298.404 158.717, 307.453 177.091 L 323.907 210.500 323.953 191.918 L 324 173.335 320.328 170.918 C 314.745 167.241, 312.691 163.801, 312.175 157.263 L 311.721 151.500 302.111 146.692 C 292.351 141.809, 291 141.341, 291 142.841 M 340.320 168.231 C 339.319 169.354, 337.225 170.817, 335.668 171.481 L 332.835 172.689 332.942 192.094 C 333.037 209.140, 333.257 211.656, 334.755 212.779 C 335.694 213.482, 337.034 213.932, 337.734 213.779 C 338.434 213.626, 345.748 207.495, 353.988 200.156 C 366.804 188.741, 368.827 186.546, 367.985 184.972 C 367.443 183.960, 367 181.824, 367 180.226 C 367 177.014, 367.737 177.488, 351.820 170.461 L 342.140 166.188 340.320 168.231 M 399.634 186.783 C 399.197 187.490, 429.950 216.122, 431.847 216.774 C 432.285 216.925, 434.261 213.626, 436.238 209.445 L 439.832 201.841 437.416 198.281 C 436.087 196.323, 435 193.919, 435 192.940 C 435 190.893, 434.750 190.827, 416.317 188.013 C 401.579 185.763, 400.322 185.670, 399.634 186.783 M 359.017 206.977 L 344.535 219.965 344.517 226.865 L 344.500 233.766 350.500 237.601 C 353.800 239.710, 364.955 246.963, 375.288 253.718 C 385.622 260.473, 394.679 266, 395.416 266 C 398.753 266, 398.695 263.396, 394.992 247 C 392.942 237.925, 389.609 223.110, 387.585 214.078 C 385.562 205.046, 383.707 197.336, 383.465 196.944 C 383.223 196.551, 381.781 195.996, 380.262 195.709 C 378.743 195.422, 376.600 194.917, 375.500 194.588 C 373.944 194.122, 370.283 196.874, 359.017 206.977 M 392.239 196.250 C 392.499 197.488, 395.926 212.759, 399.856 230.187 C 403.785 247.614, 407 262.160, 407 262.510 C 407 262.860, 407.645 263.001, 408.433 262.823 C 409.542 262.573, 428 227.364, 428 225.500 C 428 224.620, 393.783 194, 392.799 194 C 392.231 194, 391.979 195.012, 392.239 196.250 M 451.935 205.727 C 447.487 206.085, 447.298 206.240, 444.551 211.797 C 443 214.934, 441.125 218.928, 440.385 220.673 L 439.037 223.846 447.369 231.410 L 455.700 238.973 460.768 237.769 C 466.215 236.476, 467 235.189, 467 227.557 C 467 220.946, 459.881 204.571, 457.272 205.180 C 456.847 205.279, 454.446 205.526, 451.935 205.727 M 274.101 225.378 C 273.306 226.336, 273.040 232.789, 273.228 246.520 C 273.470 264.076, 273.695 266.407, 275.250 267.387 C 276.526 268.191, 277.474 268.191, 278.750 267.387 C 280.305 266.407, 280.530 264.076, 280.772 246.520 C 281.052 226.112, 280.698 224, 277 224 C 276.035 224, 274.730 224.620, 274.101 225.378 M 426.013 249.532 C 420.419 261.278, 417.995 267.395, 418.668 268.068 C 419.342 268.742, 422.944 267.611, 429.587 264.642 C 435.039 262.205, 441.637 259.289, 444.250 258.162 C 448.465 256.343, 449 255.761, 449 252.990 C 449 251.273, 449.448 249.032, 449.995 248.010 C 450.835 246.439, 449.792 245.059, 443.245 239.079 C 438.985 235.189, 435.244 232.005, 434.932 232.003 C 434.619 232.002, 430.606 239.889, 426.013 249.532 M 437.500 270.495 L 423.500 276.783 422.970 281.141 C 422.678 283.539, 421.623 286.870, 420.625 288.545 L 418.811 291.590 431.368 311.510 L 443.926 331.430 448.055 331.132 C 450.326 330.968, 453.511 331.383, 455.131 332.054 C 458.695 333.531, 461.041 331.732, 466.936 323 C 476.427 308.944, 478.204 290.862, 471.528 276.279 C 469.371 271.569, 468.778 271, 466.023 271 C 462.053 271, 457.019 268.858, 454.595 266.138 C 453.547 264.962, 452.422 264.047, 452.095 264.104 C 451.768 264.160, 445.200 267.037, 437.500 270.495 M 220.897 278.883 C 218.845 280.544, 218.712 281.072, 219.765 283.383 L 220.957 286 240.856 286 C 262.416 286, 263.879 285.639, 262.623 280.632 C 261.794 277.330, 259.942 277.029, 240.361 277.014 C 225.056 277.001, 222.973 277.201, 220.897 278.883 M 310.764 277.749 L 292.027 278.044 291.402 280.535 C 290.117 285.654, 291.494 286, 313.144 286 L 333.043 286 334.235 283.383 C 335.288 281.072, 335.155 280.544, 333.103 278.883 C 331.825 277.847, 330.491 277.102, 330.139 277.227 C 329.788 277.351, 321.069 277.586, 310.764 277.749 M 371.500 310.506 C 358.850 320.075, 348.388 328.488, 348.251 329.202 C 348.114 329.916, 348.339 330.975, 348.751 331.557 C 349.365 332.423, 394.929 338.409, 395.618 337.713 C 395.734 337.596, 396.809 328.130, 398.007 316.678 C 400.119 296.477, 400.129 295.814, 398.342 294.459 C 397.329 293.692, 396.050 293.073, 395.500 293.085 C 394.950 293.098, 384.150 300.937, 371.500 310.506 M 274.750 296.080 C 273.174 296.998, 273 299.126, 273 317.515 C 273 336.906, 273.100 337.983, 275 339 C 276.421 339.760, 277.579 339.760, 279 339 C 280.900 337.983, 281 336.906, 281 317.500 C 281 298.325, 280.881 297.007, 279.066 296.035 C 276.764 294.803, 276.946 294.801, 274.750 296.080 M 408.621 298.750 C 407.769 303.106, 404.681 338.016, 405.112 338.426 C 405.325 338.630, 411.539 339.563, 418.919 340.499 L 432.339 342.202 434.147 339.851 C 435.142 338.558, 435.966 337.117, 435.978 336.650 C 435.990 336.182, 432.263 329.657, 427.695 322.150 C 410.461 293.823, 409.755 292.956, 408.621 298.750 M 347.222 342.568 C 345.796 345.116, 384.993 388.076, 388.022 387.284 C 389.127 386.995, 390.258 386.392, 390.534 385.945 C 391.467 384.435, 394.951 347.550, 394.222 346.897 C 393.825 346.542, 384.725 345.274, 374 344.081 C 363.275 342.888, 353.083 341.665, 351.351 341.364 C 349.002 340.955, 347.954 341.260, 347.222 342.568 M 401.585 367.545 C 400.579 378.294, 399.923 387.200, 400.128 387.335 C 400.333 387.470, 402.224 388.851, 404.330 390.403 L 408.161 393.225 415.644 389.526 C 424.780 385.011, 432.698 377.294, 436.975 368.735 L 440.043 362.595 437.410 360.154 C 435.963 358.812, 434.147 356.203, 433.376 354.357 C 432.604 352.511, 431.867 350.996, 431.737 350.991 C 431.606 350.987, 425.875 350.315, 419 349.500 C 412.125 348.685, 405.806 348.013, 404.957 348.009 C 403.680 348.002, 403.098 351.377, 401.585 367.545" stroke="none" fill-rule="evenodd" data-fill-layer-id="trace-color" style="fill:url(#brand-gradient)" fill="url(#brand-gradient)" />
</svg>